<svg width="709" height="146" viewBox="0 0 709 146" fill="none" xmlns="http://www.w3.org/2000/svg">
    <g clip-path="url(#clip0_625_44)">
    <path d="M144.82 145.07L144.67 145.27H108.65L108.5 145.07L0 0.00976562H36.31L126.66 120.8L144.82 145.07Z" fill="#007AFF"/>
    <path d="M242.15 87.15L220.27 116.4H346.91L325.32 145.26H162.19L153.43 133.55L135.28 109.27L53.54 0.01V0H89.63V0.01H89.64L89.76 0.17L153.32 85.15V85.16L171.48 109.42V109.43L180.32 121.25H180.33L180.44 121.1L189.17 109.43V109.42L205.83 87.15L225.68 60.62L227.49 58.2L240.35 41.01H276.66L263.8 58.2H390.44L368.79 87.15H242.15Z" fill="#007AFF"/>
    <path d="M614.62 0.00976562L592.97 28.9598H466.33L466.29 29.0098H429.97L430.01 28.9598H285.68L285.64 29.0098H249.32L249.36 28.9598H231.67L231.63 29.0098L180.33 97.5998L162.17 73.3298L195.35 28.9598L217.01 0.00976562H614.62Z" fill="#007AFF"/>
    <path d="M708.2 116.4L686.61 145.27H523.65L545.24 116.4H545.25L555.86 102.22L567.13 87.1498L588.78 58.1998L599.69 43.6198L601.64 41.0098L610.62 29.0098L610.66 28.9598L632.31 0.00976562H668.63L668.5 0.179766L646.97 28.9598L646.93 29.0098L638.25 40.6198L637.96 41.0098L625.1 58.1998L603.44 87.1498L581.56 116.4H708.2Z" fill="#007AFF"/>
    <path d="M422.79 87.1498L400.92 116.4H527.56L505.97 145.27H343.01L364.6 116.4L374.16 103.62L378.65 97.6198L386.48 87.1498L408.13 58.1998L420.99 41.0098H457.31L444.45 58.1998H571.09L549.43 87.1498H422.79Z" fill="#007AFF"/>
    </g>
    <defs>
    <clipPath id="clip0_625_44">
    <rect width="708.2" height="145.27" fill="#007AFF"/>
    </clipPath>
    </defs>
</svg>
    